<?xml version="1.0" encoding="UTF-8"?><svg xmlns="http://www.w3.org/2000/svg" xmlns:xlink="http://www.w3.org/1999/xlink" height="120.0" preserveAspectRatio="xMidYMid meet" version="1.0" viewBox="0.0 0.0 265.0 120.0" width="265.0" zoomAndPan="magnify"><g><g id="change1_1"><path d="M260 115L260 105 255 105 255 95 250 95 250 90 245 90 245 85 235 85 235 80 227.5 80 220 80 220 85 210 85 210 90 205 90 205 85 205 75 200 75 200 60 195 60 195 55 185 55 185 50 180 50 175 50 175 45 175 40 180 40 180 35 185 35 185 25 180 25 180 20 175 20 175 10 170 10 170 5 160 5 160 0 130 0 130 5 115 5 115 10 110 10 110 20 105 20 105 25 90 25 90 30 80 30 80 35 75 35 75 45 75 50 70 50 70 45 55 45 55 50 45 50 45 55 40 55 40 60 35 60 35 75 30 75 30 80 25 80 25 85 20 85 20 100 25 100 25 105 15 105 15 110 5 110 5 115 0 115 0 120 265 120 265 115z" fill="#BFEBF4"/></g><g fill="#D8BBFF" id="change2_1"><path d="M40 60H45V65H40z"/><path d="M50 55L55 55 55 50 50 50 45 50 45 55 45 60 50 60z"/><path d="M45 65L45 70 55 70 55 65 55 60 50 60 50 65z"/><path d="M60 75L60 80 70 80 70 75 65 75 65 70 60 70 55 70 55 75z"/><path d="M30 80H35V85H30z"/><path d="M35 100L35 95 30 95 30 85 25 85 25 100 30 100 30 105 40 105 40 100z"/><path d="M40 105H50V110H40z"/><path d="M75 90L70 90 70 105 65 105 65 110 50 110 50 115 75 115 75 110 80 110 80 105 75 105z"/><path d="M15 105H30V110H15z"/><path d="M5 110H15V115H5z"/><path d="M35 85H40V90H35z"/><path d="M50 100H55V105H50z"/><path d="M80 35H85V50H80z"/><path d="M85 30H90V35H85z"/><path d="M75 50H80V60H75z"/><path d="M80 60H95V65H80z"/><path d="M95 65H110V70H95z"/><path d="M95 55H100V60H95z"/><path d="M110 70H120V75H110z"/><path d="M115 60H120V65H115z"/><path d="M85 105H95V110H85z"/><path d="M85 80H95V85H85z"/><path d="M90 95L90 90 85 90 85 85 80 85 80 105 85 105 85 95z"/><path d="M115 85H120V90H115z"/><path d="M130 100H135V105H130z"/><path d="M120 40L125 40 125 45 145 45 145 40 130 40 130 30 125 30 125 20 130 20 130 10 135 10 135 5 140 5 140 0 130 0 130 5 125 5 125 10 120 10 120 20 115 20 115 30 120 30z"/><path d="M145 35H165V40H145z"/><path d="M170 40H175V45H170z"/><path d="M140 30H145V35H140z"/><path d="M150 95L150 90 145 90 145 80 140 80 140 65 145 65 145 55 155 55 155 50 165 50 165 45 150 45 150 50 140 50 140 55 135 55 135 65 130 65 130 80 135 80 135 90 140 90 140 95 145 95 145 100 165 100 165 95z"/><path d="M175 90L170 90 170 85 165 85 165 90 165 95 175 95z"/><path d="M210 90H215V105H210z"/><path d="M215 85H220V90H215z"/><path d="M215 105H225V110H215z"/><path d="M225 110H250V115H225z"/><path d="M225 100H230V105H225z"/><path d="M160 80H165V85H160z"/><path d="M160 70L155 70 155 75 155 80 160 80 160 75z"/><path d="M160 65H165V70H160z"/><path d="M170 80H175V85H170z"/><path d="M175 75H180V80H175z"/><path d="M95 100H100V105H95z"/><path d="M100 90H105V100H100z"/><path d="M105 85H110V90H105z"/><path d="M105 100H115V105H105z"/><path d="M115 95H120V100H115z"/><path d="M195 100L195 105 185 105 185 110 170 110 170 105 175 105 175 100 170 100 165 100 165 110 95 110 95 115 205 115 205 110 200 110 200 105 205 105 205 100 200 100z"/><path d="M190 95H195V100H190z"/><path d="M200 90H205V95H200z"/><path d="M175 95H180V100H175z"/></g><g fill="#7C9AE0" id="change3_1"><path d="M255 115L255 110 250 110 250 115 225 115 225 110 215 110 215 105 210 105 210 90 205 90 205 105 200 105 200 110 205 110 205 115 170 115 170 110 165 110 165 105 170 105 170 100 175 100 175 95 165 95 165 100 145 100 145 105 155 105 155 110 160 110 160 115 95 115 95 110 85 110 85 105 80 105 80 110 75 110 75 115 50 115 50 110 40 110 40 105 30 105 30 110 35 110 35 115 0 115 0 120 265 120 265 115z"/><path d="M70 50H75V60H70z"/><path d="M75 60H80V65H75z"/><path d="M75 35H80V50H75z"/><path d="M80 30H85V35H80z"/><path d="M210 85H215V90H210z"/><path d="M120 40L120 30 115 30 115 25 115 20 120 20 120 10 125 10 125 5 120 5 115 5 115 10 110 10 110 20 105 20 105 25 105 30 110 30 110 40 115 40 115 45 125 45 125 40z"/><path d="M20 85H25V100H20z"/><path d="M25 80H30V85H25z"/><path d="M25 100H30V105H25z"/><path d="M55 75H60V80H55z"/><path d="M165 45H175V50H165z"/><path d="M175 90H180V95H175z"/><path d="M80 85L85 85 85 80 90 80 95 80 95 75 110 75 110 70 95 70 95 65 85 65 80 65 80 70 85 70 85 75 80 75 80 80 75 80 75 85 70 85 70 90 75 90 75 95 75 105 80 105 80 95z"/><path d="M40 55H45V60H40z"/><path d="M120 80L120 85 125 85 125 90 130 90 130 95 135 95 135 100 145 100 145 95 140 95 140 90 135 90 135 80 130 80 130 65 135 65 135 55 140 55 140 50 150 50 150 45 165 45 165 40 145 40 145 45 135 45 125 45 125 50 125 55 125 60 120 60 120 75 110 75 110 80z"/><path d="M40 80L40 75 55 75 55 70 45 70 45 65 40 65 40 60 35 60 35 70 35 75 30 75 30 80 35 80z"/></g><g fill="#F2FCFC" id="change4_1"><path d="M140 0H160V5H140z"/><path d="M160 5H170V10H160z"/><path d="M155 10H160V15H155z"/><path d="M170 10H175V20H170z"/><path d="M165 20H170V25H165z"/><path d="M165 15H170V20H165z"/><path d="M150 5H155V10H150z"/><path d="M145 10H150V15H145z"/><path d="M135 5H140V10H135z"/><path d="M175 25H180V30H175z"/><path d="M170 30H175V35H170z"/><path d="M130 10H135V15H130z"/><path d="M175 20H180V25H175z"/><path d="M180 25H185V35H180z"/><path d="M175 35H180V40H175z"/><path d="M175 50H185V55H175z"/><path d="M185 55H195V60H185z"/><path d="M195 60H200V75H195z"/><path d="M200 75H205V90H200z"/><path d="M170 55H175V60H170z"/><path d="M180 60H185V65H180z"/><path d="M165 50H170V55H165z"/><path d="M190 60H195V65H190z"/><path d="M185 65H190V70H185z"/><path d="M190 75H195V80H190z"/><path d="M220 80H235V85H220z"/><path d="M235 85H245V90H235z"/><path d="M230 90H235V95H230z"/><path d="M245 90H250V95H245z"/><path d="M250 95H255V105H250z"/><path d="M255 105H260V110H255z"/><path d="M95 30L105 30 105 25 90 25 90 30 90 35 95 35z"/><path d="M55 50L55 55 60 55 60 50 70 50 70 45 55 45z"/><path d="M65 55H70V60H65z"/><path d="M65 70H70V75H65z"/><path d="M55 80H65V85H55z"/><path d="M65 85H70V90H65z"/><path d="M40 75H55V80H40z"/><path d="M95 75H110V80H95z"/><path d="M110 80H120V85H110z"/><path d="M120 85H125V90H120z"/><path d="M155 50H165V55H155z"/><path d="M105 30H110V40H105z"/><path d="M100 40H105V45H100z"/><path d="M115 45H125V50H115z"/><path d="M110 50H115V55H110z"/><path d="M195 90H200V95H195z"/><path d="M160 70H165V80H160z"/><path d="M165 80H170V85H165z"/><path d="M140 25H145V30H140z"/><path d="M125 90H130V95H125z"/><path d="M130 95H135V100H130z"/></g></g></svg>